<svg xmlns="http://www.w3.org/2000/svg" xmlns:xlink="http://www.w3.org/1999/xlink" width="2000" zoomAndPan="magnify" viewBox="0 0 1500 1499.999933" height="2000" preserveAspectRatio="xMidYMid meet" version="1.0"><defs><clipPath id="17cc971ec5"><path d="M 239 69.757812 L 1261 69.757812 L 1261 1430.257812 L 239 1430.257812 Z M 239 69.757812 " clip-rule="nonzero"/></clipPath><clipPath id="44750b396a"><path d="M 494.929688 322.5 L 1004.929688 322.5 L 1004.929688 981.75 L 494.929688 981.75 Z M 494.929688 322.5 " clip-rule="nonzero"/></clipPath></defs><path fill="#000000" d="M 749.890625 1400.808594 C 669.417969 1365.46875 269.011719 847.183594 269.011719 580.1875 C 269.011719 311.230469 480.992188 99.203125 749.890625 99.203125 C 1018.789062 99.203125 1230.769531 315.15625 1230.769531 588.042969 C 1230.769531 853.074219 830.363281 1365.46875 749.890625 1400.808594 Z M 749.890625 1400.808594 " fill-opacity="1" fill-rule="nonzero"/><g clip-path="url(#17cc971ec5)"><path fill="#000000" d="M 749.890625 128.652344 C 1003.089844 128.652344 1201.328125 330.863281 1201.328125 588.042969 C 1201.328125 694.054688 1126.742188 864.851562 997.199219 1059.210938 C 893.171875 1218.230469 793.070312 1330.132812 749.890625 1365.46875 C 708.671875 1330.132812 606.609375 1218.230469 502.582031 1057.246094 C 373.039062 858.964844 298.453125 686.203125 298.453125 580.1875 C 298.453125 326.9375 496.695312 128.652344 749.890625 128.652344 M 749.890625 69.757812 C 463.328125 69.757812 239.570312 293.5625 239.570312 580.1875 C 239.570312 866.816406 681.195312 1430.257812 749.890625 1430.257812 C 818.589844 1430.257812 1260.210938 874.667969 1260.210938 588.042969 C 1260.210938 301.414062 1036.453125 69.757812 749.890625 69.757812 Z M 749.890625 69.757812 " fill-opacity="1" fill-rule="nonzero"/></g><g clip-path="url(#44750b396a)"><path fill="#ffffff" d="M 965.6875 591.613281 C 948.105469 591.539062 933.175781 602.9375 927.957031 618.753906 C 926.019531 624.617188 920.726562 628.707031 914.554688 628.707031 L 911.628906 628.707031 C 903.714844 628.707031 897.300781 622.292969 897.300781 614.378906 L 897.300781 474.242188 C 897.300781 452.070312 879.15625 433.390625 856.988281 433.8125 C 835.496094 434.21875 818.203125 451.765625 818.203125 473.351562 L 818.203125 538.867188 C 818.203125 546.78125 811.789062 553.195312 803.875 553.195312 C 795.960938 553.195312 789.542969 546.78125 789.542969 538.867188 L 789.542969 363.320312 C 789.542969 341.148438 771.398438 322.46875 749.230469 322.886719 C 727.742188 323.292969 710.445312 340.839844 710.445312 362.429688 L 710.445312 614.378906 C 710.445312 622.292969 704.03125 628.707031 696.113281 628.707031 C 688.203125 628.707031 681.785156 622.292969 681.785156 614.378906 L 681.785156 531.914062 C 681.785156 509.742188 663.640625 491.0625 641.472656 491.480469 C 619.984375 491.886719 602.6875 509.433594 602.6875 531.023438 L 602.6875 614.378906 C 602.6875 622.292969 596.269531 628.707031 588.355469 628.707031 C 580.441406 628.707031 574.027344 622.292969 574.027344 614.378906 L 574.027344 611.121094 C 574.027344 588.949219 555.882812 570.269531 533.714844 570.6875 C 512.222656 571.09375 494.929688 588.640625 494.929688 610.230469 L 494.929688 693.070312 C 494.929688 715.238281 513.074219 733.921875 535.242188 733.5 C 556.730469 733.09375 574.027344 715.546875 574.027344 693.957031 L 574.027344 689.8125 C 574.027344 681.898438 580.441406 675.480469 588.355469 675.480469 C 596.269531 675.480469 602.6875 681.898438 602.6875 689.8125 L 602.6875 772.277344 C 602.6875 794.449219 620.832031 813.128906 643 812.707031 C 664.492188 812.300781 681.785156 794.753906 681.785156 773.167969 L 681.785156 742.71875 C 681.785156 734.804688 688.203125 728.390625 696.113281 728.390625 C 704.03125 728.390625 710.445312 734.804688 710.445312 742.71875 L 710.445312 940.871094 C 710.445312 963.042969 728.589844 981.722656 750.757812 981.300781 C 772.246094 980.894531 789.542969 963.347656 789.542969 941.761719 L 789.542969 689.8125 C 789.542969 681.898438 795.960938 675.480469 803.875 675.480469 C 811.789062 675.480469 818.203125 681.898438 818.203125 689.8125 L 818.203125 829.949219 C 818.203125 852.121094 836.347656 870.800781 858.515625 870.378906 C 880.007812 869.96875 897.300781 852.421875 897.300781 830.835938 L 897.300781 689.8125 C 897.300781 681.898438 903.714844 675.480469 911.628906 675.480469 L 914.554688 675.480469 C 920.726562 675.480469 926.019531 679.574219 927.957031 685.433594 C 933.175781 701.25 948.105469 712.652344 965.6875 712.574219 C 987.625 712.480469 1005.058594 693.984375 1005.058594 672.046875 L 1005.058594 632.144531 C 1005.058594 610.207031 987.625 591.707031 965.6875 591.613281 " fill-opacity="1" fill-rule="nonzero"/></g></svg>