<svg xmlns="http://www.w3.org/2000/svg" xmlns:xlink="http://www.w3.org/1999/xlink" width="2000" zoomAndPan="magnify" viewBox="0 0 1500 1499.999933" height="2000" preserveAspectRatio="xMidYMid meet" version="1.0"><defs><clipPath id="6d114f6b89"><path d="M 239 69.757812 L 1261 69.757812 L 1261 1430.257812 L 239 1430.257812 Z M 239 69.757812 " clip-rule="nonzero"/></clipPath><clipPath id="221caa8909"><path d="M 982 521 L 1078.078125 521 L 1078.078125 755 L 982 755 Z M 982 521 " clip-rule="nonzero"/></clipPath><clipPath id="b9a7b20ea1"><path d="M 421.828125 521 L 518 521 L 518 755 L 421.828125 755 Z M 421.828125 521 " clip-rule="nonzero"/></clipPath></defs><rect x="-150" width="1800" fill="#ffffff" y="-149.999993" height="1799.99992" fill-opacity="1"/><rect x="-150" width="1800" fill="#ffffff" y="-149.999993" height="1799.99992" fill-opacity="1"/><path fill="#000000" d="M 749.890625 1400.808594 C 669.417969 1365.46875 269.011719 847.183594 269.011719 580.1875 C 269.011719 311.230469 480.992188 99.203125 749.890625 99.203125 C 1018.789062 99.203125 1230.769531 315.15625 1230.769531 588.042969 C 1230.769531 853.074219 830.363281 1365.46875 749.890625 1400.808594 Z M 749.890625 1400.808594 " fill-opacity="1" fill-rule="nonzero"/><g clip-path="url(#6d114f6b89)"><path fill="#000000" d="M 749.890625 128.652344 C 1003.089844 128.652344 1201.328125 330.863281 1201.328125 588.042969 C 1201.328125 694.054688 1126.742188 864.851562 997.199219 1059.210938 C 893.171875 1218.230469 793.070312 1330.132812 749.890625 1365.46875 C 708.671875 1330.132812 606.609375 1218.230469 502.582031 1057.246094 C 373.039062 858.964844 298.453125 686.203125 298.453125 580.1875 C 298.453125 326.9375 496.695312 128.652344 749.890625 128.652344 M 749.890625 69.757812 C 463.328125 69.757812 239.570312 293.5625 239.570312 580.1875 C 239.570312 866.816406 681.195312 1430.257812 749.890625 1430.257812 C 818.589844 1430.257812 1260.210938 874.667969 1260.210938 588.042969 C 1260.210938 301.414062 1036.453125 69.757812 749.890625 69.757812 Z M 749.890625 69.757812 " fill-opacity="1" fill-rule="nonzero"/></g><path fill="#ffffff" d="M 749.746094 1008.121094 C 723.308594 1008.121094 701.957031 986.769531 701.957031 960.332031 L 701.957031 316.191406 C 701.957031 289.753906 723.308594 268.398438 749.746094 268.398438 C 776.183594 268.398438 797.535156 289.753906 797.535156 316.191406 L 797.535156 960.332031 C 797.535156 986.769531 776.183594 1008.121094 749.746094 1008.121094 Z M 749.746094 1008.121094 " fill-opacity="1" fill-rule="nonzero"/><path fill="#ffffff" d="M 890.0625 890.171875 C 863.628906 890.171875 842.273438 868.820312 842.273438 842.382812 L 842.273438 434.136719 C 842.273438 407.703125 863.625 386.347656 890.0625 386.347656 C 916.5 386.347656 937.851562 407.703125 937.851562 434.136719 L 937.851562 842.382812 C 937.851562 868.3125 916.5 890.171875 890.0625 890.171875 Z M 890.0625 890.171875 " fill-opacity="1" fill-rule="nonzero"/><g clip-path="url(#221caa8909)"><path fill="#ffffff" d="M 1030.382812 754.9375 C 1003.945312 754.9375 982.59375 733.585938 982.59375 707.148438 L 982.59375 569.371094 C 982.59375 542.9375 1003.945312 521.582031 1030.382812 521.582031 C 1056.820312 521.582031 1078.171875 542.9375 1078.171875 569.371094 L 1078.171875 707.65625 C 1078.171875 733.585938 1056.308594 754.9375 1030.382812 754.9375 Z M 1030.382812 754.9375 " fill-opacity="1" fill-rule="nonzero"/></g><path fill="#ffffff" d="M 609.9375 890.171875 C 583.5 890.171875 562.144531 868.820312 562.144531 842.382812 L 562.144531 434.136719 C 562.144531 407.703125 583.5 386.347656 609.9375 386.347656 C 636.371094 386.347656 657.726562 407.703125 657.726562 434.136719 L 657.726562 842.382812 C 657.214844 868.3125 635.863281 890.171875 609.9375 890.171875 Z M 609.9375 890.171875 " fill-opacity="1" fill-rule="nonzero"/><g clip-path="url(#b9a7b20ea1)"><path fill="#ffffff" d="M 469.617188 754.9375 C 443.179688 754.9375 421.828125 733.585938 421.828125 707.148438 L 421.828125 568.863281 C 421.828125 542.425781 443.179688 521.074219 469.617188 521.074219 C 496.054688 521.074219 517.40625 542.425781 517.40625 568.863281 L 517.40625 707.148438 C 517.40625 733.585938 495.546875 754.9375 469.617188 754.9375 Z M 469.617188 754.9375 " fill-opacity="1" fill-rule="nonzero"/></g></svg>