<svg xmlns="http://www.w3.org/2000/svg" xmlns:xlink="http://www.w3.org/1999/xlink" width="2000" zoomAndPan="magnify" viewBox="0 0 1500 1499.999933" height="2000" preserveAspectRatio="xMidYMid meet" version="1.0"><defs><clipPath id="bb35381082"><path d="M 239 69.757812 L 1261 69.757812 L 1261 1430.257812 L 239 1430.257812 Z M 239 69.757812 " clip-rule="nonzero"/></clipPath><clipPath id="8b64b11b7f"><path d="M 438 361.367188 L 1062 361.367188 L 1062 861 L 438 861 Z M 438 361.367188 " clip-rule="nonzero"/></clipPath></defs><path fill="#000000" d="M 749.890625 1400.808594 C 669.417969 1365.46875 269.011719 847.183594 269.011719 580.1875 C 269.011719 311.230469 480.992188 99.203125 749.890625 99.203125 C 1018.789062 99.203125 1230.769531 315.15625 1230.769531 588.042969 C 1230.769531 853.074219 830.363281 1365.46875 749.890625 1400.808594 Z M 749.890625 1400.808594 " fill-opacity="1" fill-rule="nonzero"/><g clip-path="url(#bb35381082)"><path fill="#000000" d="M 749.890625 128.652344 C 1003.089844 128.652344 1201.328125 330.863281 1201.328125 588.042969 C 1201.328125 694.054688 1126.742188 864.851562 997.199219 1059.210938 C 893.171875 1218.230469 793.070312 1330.132812 749.890625 1365.46875 C 708.671875 1330.132812 606.609375 1218.230469 502.582031 1057.246094 C 373.039062 858.964844 298.453125 686.203125 298.453125 580.1875 C 298.453125 326.9375 496.695312 128.652344 749.890625 128.652344 M 749.890625 69.757812 C 463.328125 69.757812 239.570312 293.5625 239.570312 580.1875 C 239.570312 866.816406 681.195312 1430.257812 749.890625 1430.257812 C 818.589844 1430.257812 1260.210938 874.667969 1260.210938 588.042969 C 1260.210938 301.414062 1036.453125 69.757812 749.890625 69.757812 Z M 749.890625 69.757812 " fill-opacity="1" fill-rule="nonzero"/></g><g clip-path="url(#8b64b11b7f)"><path fill="#ffffff" d="M 571.527344 361.144531 C 568.71875 361.195312 565.996094 361.703125 563.355469 362.667969 C 560.71875 363.636719 558.316406 365.011719 556.144531 366.792969 C 484.46875 423.847656 438.429688 512 438.429688 610.617188 C 438.429688 709.238281 484.46875 797.390625 556.144531 854.445312 C 556.78125 854.964844 557.441406 855.453125 558.128906 855.90625 C 558.8125 856.359375 559.519531 856.78125 560.246094 857.164062 C 560.972656 857.546875 561.71875 857.894531 562.480469 858.207031 C 563.238281 858.519531 564.015625 858.789062 564.804688 859.023438 C 565.59375 859.257812 566.390625 859.453125 567.199219 859.609375 C 568.003906 859.761719 568.820312 859.878906 569.636719 859.953125 C 570.457031 860.027344 571.277344 860.0625 572.101562 860.054688 C 572.921875 860.046875 573.742188 860 574.558594 859.914062 C 575.378906 859.824219 576.191406 859.695312 576.996094 859.527344 C 577.800781 859.359375 578.59375 859.152344 579.378906 858.90625 C 580.164062 858.660156 580.933594 858.375 581.691406 858.050781 C 582.445312 857.726562 583.183594 857.367188 583.90625 856.972656 C 584.625 856.574219 585.324219 856.144531 586.003906 855.679688 C 586.683594 855.214844 587.335938 854.714844 587.964844 854.1875 C 588.59375 853.65625 589.195312 853.097656 589.769531 852.507812 C 590.339844 851.917969 590.882812 851.300781 591.398438 850.65625 C 591.910156 850.015625 592.386719 849.347656 592.835938 848.65625 C 593.28125 847.964844 593.691406 847.253906 594.070312 846.523438 C 594.445312 845.792969 594.785156 845.042969 595.085938 844.277344 C 595.386719 843.511719 595.652344 842.734375 595.875 841.945312 C 596.101562 841.152344 596.285156 840.351562 596.429688 839.542969 C 596.578125 838.734375 596.683594 837.917969 596.746094 837.101562 C 596.8125 836.28125 596.835938 835.457031 596.820312 834.636719 C 596.804688 833.8125 596.75 832.996094 596.652344 832.179688 C 596.554688 831.363281 596.417969 830.550781 596.238281 829.75 C 596.0625 828.945312 595.84375 828.152344 595.589844 827.371094 C 595.332031 826.589844 595.039062 825.824219 594.707031 825.070312 C 594.375 824.316406 594.007812 823.582031 593.601562 822.867188 C 593.199219 822.152344 592.757812 821.457031 592.285156 820.785156 C 591.8125 820.113281 591.308594 819.464844 590.769531 818.839844 C 590.234375 818.21875 589.667969 817.625 589.070312 817.058594 C 588.472656 816.492188 587.851562 815.953125 587.203125 815.449219 C 526.921875 767.46875 488.28125 693.757812 488.28125 610.617188 C 488.28125 527.480469 526.921875 453.769531 587.203125 405.789062 C 588.230469 404.992188 589.191406 404.121094 590.085938 403.175781 C 590.976562 402.226562 591.789062 401.21875 592.527344 400.144531 C 593.261719 399.070312 593.90625 397.945312 594.464844 396.769531 C 595.023438 395.59375 595.488281 394.382812 595.855469 393.136719 C 596.222656 391.886719 596.492188 390.617188 596.664062 389.328125 C 596.835938 388.039062 596.902344 386.742188 596.871094 385.441406 C 596.835938 384.140625 596.703125 382.851562 596.46875 381.574219 C 596.234375 380.292969 595.902344 379.039062 595.46875 377.8125 C 595.039062 376.585938 594.515625 375.398438 593.898438 374.25 C 593.28125 373.105469 592.578125 372.015625 591.792969 370.980469 C 591.003906 369.945312 590.140625 368.976562 589.203125 368.074219 C 588.261719 367.175781 587.257812 366.355469 586.191406 365.609375 C 585.121094 364.867188 584.003906 364.210938 582.832031 363.644531 C 581.664062 363.074219 580.453125 362.601562 579.210938 362.222656 C 577.964844 361.84375 576.699219 361.566406 575.410156 361.382812 C 574.121094 361.203125 572.828125 361.125 571.527344 361.144531 Z M 927.710938 361.144531 C 926.425781 361.164062 925.148438 361.277344 923.882812 361.492188 C 922.617188 361.707031 921.371094 362.019531 920.152344 362.425781 C 918.933594 362.832031 917.753906 363.332031 916.609375 363.921875 C 915.46875 364.507812 914.378906 365.183594 913.339844 365.941406 C 912.304688 366.699219 911.328125 367.53125 910.421875 368.441406 C 909.511719 369.347656 908.679688 370.324219 907.917969 371.359375 C 907.160156 372.398438 906.488281 373.488281 905.898438 374.628906 C 905.308594 375.769531 904.808594 376.949219 904.402344 378.167969 C 903.992188 379.386719 903.683594 380.632812 903.46875 381.898438 C 903.253906 383.164062 903.136719 384.441406 903.117188 385.726562 C 903.101562 387.011719 903.179688 388.289062 903.359375 389.5625 C 903.542969 390.835938 903.816406 392.085938 904.191406 393.316406 C 904.566406 394.546875 905.03125 395.738281 905.589844 396.898438 C 906.148438 398.054688 906.789062 399.164062 907.519531 400.222656 C 908.25 401.277344 909.054688 402.273438 909.941406 403.207031 C 910.824219 404.140625 911.773438 405 912.789062 405.789062 C 973.070312 453.769531 1011.710938 527.480469 1011.710938 610.617188 C 1011.710938 693.757812 973.070312 767.46875 912.789062 815.449219 C 912.140625 815.953125 911.519531 816.492188 910.921875 817.058594 C 910.324219 817.625 909.757812 818.21875 909.222656 818.839844 C 908.683594 819.464844 908.179688 820.113281 907.707031 820.785156 C 907.230469 821.457031 906.792969 822.152344 906.390625 822.867188 C 905.984375 823.582031 905.617188 824.316406 905.285156 825.070312 C 904.953125 825.824219 904.660156 826.589844 904.402344 827.371094 C 904.148438 828.152344 903.929688 828.945312 903.753906 829.75 C 903.574219 830.550781 903.4375 831.363281 903.339844 832.179688 C 903.242188 832.996094 903.1875 833.8125 903.171875 834.636719 C 903.15625 835.457031 903.179688 836.28125 903.246094 837.101562 C 903.308594 837.917969 903.414062 838.734375 903.558594 839.542969 C 903.707031 840.351562 903.890625 841.152344 904.117188 841.945312 C 904.339844 842.734375 904.605469 843.511719 904.90625 844.277344 C 905.207031 845.042969 905.546875 845.792969 905.921875 846.523438 C 906.300781 847.253906 906.710938 847.964844 907.15625 848.65625 C 907.601562 849.347656 908.082031 850.015625 908.59375 850.65625 C 909.109375 851.300781 909.652344 851.917969 910.222656 852.507812 C 910.796875 853.097656 911.398438 853.65625 912.027344 854.1875 C 912.65625 854.714844 913.308594 855.214844 913.988281 855.679688 C 914.664062 856.144531 915.363281 856.574219 916.085938 856.972656 C 916.808594 857.367188 917.546875 857.726562 918.300781 858.050781 C 919.058594 858.375 919.828125 858.660156 920.613281 858.90625 C 921.398438 859.152344 922.191406 859.359375 922.996094 859.527344 C 923.800781 859.695312 924.613281 859.824219 925.429688 859.914062 C 926.25 860 927.070312 860.046875 927.890625 860.054688 C 928.714844 860.0625 929.535156 860.027344 930.355469 859.953125 C 931.171875 859.878906 931.984375 859.761719 932.792969 859.609375 C 933.601562 859.453125 934.398438 859.257812 935.1875 859.023438 C 935.976562 858.789062 936.75 858.519531 937.511719 858.207031 C 938.273438 857.894531 939.019531 857.546875 939.746094 857.164062 C 940.472656 856.78125 941.179688 856.359375 941.863281 855.90625 C 942.550781 855.453125 943.210938 854.964844 943.847656 854.445312 C 1015.523438 797.390625 1061.5625 709.238281 1061.5625 610.617188 C 1061.5625 512 1015.523438 423.847656 943.847656 366.792969 C 941.578125 364.929688 939.054688 363.511719 936.277344 362.542969 C 933.503906 361.574219 930.648438 361.105469 927.710938 361.144531 Z M 632.234375 425.359375 C 629.425781 425.308594 626.691406 425.722656 624.023438 426.601562 C 621.359375 427.476562 618.910156 428.765625 616.679688 430.46875 C 561.621094 471.285156 525.667969 536.855469 525.667969 610.617188 C 525.667969 693.488281 570.898438 766.023438 637.929688 804.789062 C 638.636719 805.199219 639.359375 805.574219 640.105469 805.910156 C 640.847656 806.25 641.605469 806.550781 642.378906 806.8125 C 643.152344 807.078125 643.9375 807.304688 644.730469 807.492188 C 645.527344 807.675781 646.328125 807.824219 647.140625 807.933594 C 647.949219 808.039062 648.761719 808.109375 649.578125 808.136719 C 650.394531 808.164062 651.210938 808.152344 652.027344 808.101562 C 652.839844 808.046875 653.652344 807.957031 654.457031 807.824219 C 655.265625 807.691406 656.0625 807.519531 656.851562 807.308594 C 657.640625 807.101562 658.417969 806.851562 659.183594 806.566406 C 659.949219 806.277344 660.699219 805.953125 661.429688 805.59375 C 662.164062 805.234375 662.878906 804.839844 663.570312 804.40625 C 664.265625 803.976562 664.9375 803.511719 665.585938 803.015625 C 666.234375 802.519531 666.859375 801.992188 667.453125 801.4375 C 668.050781 800.878906 668.621094 800.292969 669.160156 799.679688 C 669.699219 799.066406 670.207031 798.425781 670.683594 797.761719 C 671.160156 797.097656 671.601562 796.414062 672.011719 795.707031 C 672.421875 795 672.792969 794.273438 673.132812 793.53125 C 673.46875 792.785156 673.769531 792.027344 674.035156 791.253906 C 674.296875 790.480469 674.519531 789.695312 674.707031 788.902344 C 674.894531 788.105469 675.039062 787.304688 675.148438 786.492188 C 675.253906 785.683594 675.324219 784.871094 675.351562 784.054688 C 675.378906 783.238281 675.363281 782.421875 675.3125 781.605469 C 675.257812 780.792969 675.164062 779.980469 675.035156 779.175781 C 674.902344 778.367188 674.730469 777.570312 674.519531 776.78125 C 674.308594 775.992188 674.058594 775.214844 673.769531 774.449219 C 673.484375 773.6875 673.160156 772.9375 672.796875 772.203125 C 672.4375 771.472656 672.042969 770.757812 671.609375 770.0625 C 671.179688 769.371094 670.714844 768.699219 670.21875 768.050781 C 669.722656 767.402344 669.195312 766.78125 668.636719 766.183594 C 668.078125 765.585938 667.492188 765.019531 666.875 764.480469 C 666.261719 763.941406 665.625 763.433594 664.960938 762.957031 C 664.296875 762.484375 663.609375 762.039062 662.902344 761.632812 C 610.714844 731.453125 575.519531 675.382812 575.519531 610.617188 C 575.519531 553 603.402344 502.351562 646.351562 470.511719 C 647.40625 469.75 648.398438 468.914062 649.320312 468 C 650.246094 467.082031 651.09375 466.101562 651.863281 465.054688 C 652.632812 464.007812 653.320312 462.90625 653.917969 461.75 C 654.515625 460.59375 655.019531 459.402344 655.433594 458.167969 C 655.84375 456.933594 656.15625 455.675781 656.371094 454.390625 C 656.585938 453.109375 656.699219 451.816406 656.710938 450.515625 C 656.722656 449.214844 656.632812 447.921875 656.445312 446.636719 C 656.253906 445.347656 655.964844 444.085938 655.578125 442.84375 C 655.1875 441.601562 654.707031 440.398438 654.128906 439.230469 C 653.554688 438.066406 652.890625 436.953125 652.136719 435.890625 C 651.386719 434.828125 650.558594 433.832031 649.652344 432.898438 C 648.742188 431.964844 647.769531 431.109375 646.730469 430.332031 C 645.6875 429.550781 644.59375 428.855469 643.441406 428.25 C 642.292969 427.640625 641.101562 427.125 639.871094 426.703125 C 638.640625 426.28125 637.386719 425.957031 636.105469 425.730469 C 634.824219 425.507812 633.535156 425.382812 632.234375 425.359375 Z M 867.003906 425.382812 C 865.71875 425.445312 864.449219 425.605469 863.191406 425.863281 C 861.933594 426.121094 860.699219 426.476562 859.496094 426.925781 C 858.292969 427.375 857.128906 427.914062 856.011719 428.542969 C 854.890625 429.167969 853.824219 429.878906 852.8125 430.675781 C 851.800781 431.46875 850.859375 432.335938 849.980469 433.273438 C 849.105469 434.214844 848.304688 435.214844 847.582031 436.277344 C 846.863281 437.339844 846.226562 438.453125 845.675781 439.613281 C 845.125 440.773438 844.667969 441.972656 844.304688 443.203125 C 843.9375 444.4375 843.671875 445.6875 843.5 446.960938 C 843.328125 448.234375 843.257812 449.515625 843.285156 450.800781 C 843.308594 452.082031 843.4375 453.359375 843.660156 454.625 C 843.882812 455.890625 844.203125 457.128906 844.617188 458.347656 C 845.035156 459.5625 845.542969 460.738281 846.140625 461.875 C 846.738281 463.011719 847.417969 464.097656 848.183594 465.128906 C 848.949219 466.164062 849.789062 467.128906 850.703125 468.03125 C 851.617188 468.933594 852.597656 469.761719 853.640625 470.511719 C 896.589844 502.351562 924.472656 553 924.472656 610.617188 C 924.472656 675.382812 889.277344 731.453125 837.089844 761.632812 C 836.382812 762.039062 835.695312 762.484375 835.03125 762.957031 C 834.367188 763.433594 833.730469 763.941406 833.113281 764.480469 C 832.5 765.019531 831.914062 765.585938 831.355469 766.183594 C 830.796875 766.78125 830.269531 767.402344 829.773438 768.050781 C 829.277344 768.699219 828.8125 769.371094 828.382812 770.0625 C 827.949219 770.757812 827.554688 771.472656 827.191406 772.203125 C 826.832031 772.9375 826.507812 773.6875 826.222656 774.449219 C 825.933594 775.214844 825.683594 775.992188 825.472656 776.78125 C 825.261719 777.570312 825.089844 778.367188 824.957031 779.175781 C 824.824219 779.980469 824.734375 780.792969 824.679688 781.605469 C 824.628906 782.421875 824.613281 783.238281 824.640625 784.054688 C 824.667969 784.871094 824.738281 785.683594 824.84375 786.492188 C 824.949219 787.304688 825.097656 788.105469 825.285156 788.902344 C 825.46875 789.695312 825.695312 790.480469 825.957031 791.253906 C 826.222656 792.027344 826.523438 792.785156 826.859375 793.53125 C 827.199219 794.273438 827.570312 795 827.980469 795.707031 C 828.390625 796.414062 828.832031 797.097656 829.308594 797.761719 C 829.785156 798.425781 830.292969 799.066406 830.832031 799.679688 C 831.371094 800.292969 831.941406 800.878906 832.535156 801.4375 C 833.132812 801.992188 833.757812 802.519531 834.40625 803.015625 C 835.054688 803.511719 835.726562 803.976562 836.417969 804.40625 C 837.113281 804.839844 837.828125 805.234375 838.5625 805.59375 C 839.292969 805.953125 840.042969 806.277344 840.808594 806.566406 C 841.574219 806.851562 842.351562 807.101562 843.140625 807.308594 C 843.929688 807.519531 844.726562 807.691406 845.53125 807.824219 C 846.339844 807.957031 847.148438 808.046875 847.964844 808.101562 C 848.78125 808.152344 849.597656 808.164062 850.414062 808.136719 C 851.230469 808.109375 852.042969 808.039062 852.851562 807.933594 C 853.660156 807.824219 854.464844 807.675781 855.257812 807.492188 C 856.054688 807.304688 856.839844 807.078125 857.613281 806.8125 C 858.386719 806.550781 859.144531 806.25 859.886719 805.910156 C 860.628906 805.574219 861.355469 805.199219 862.0625 804.789062 C 929.09375 766.023438 974.324219 693.488281 974.324219 610.617188 C 974.324219 536.855469 938.371094 471.285156 883.3125 430.46875 C 880.980469 428.6875 878.410156 427.359375 875.609375 426.484375 C 872.804688 425.609375 869.9375 425.242188 867.003906 425.382812 Z M 691.625 490.082031 C 689.242188 490.074219 686.90625 490.402344 684.617188 491.0625 C 682.328125 491.726562 680.175781 492.695312 678.164062 493.976562 C 639.082031 518.089844 612.90625 561.429688 612.90625 610.617188 C 612.90625 659.808594 639.082031 703.148438 678.164062 727.261719 C 678.859375 727.691406 679.574219 728.085938 680.308594 728.445312 C 681.042969 728.804688 681.789062 729.128906 682.554688 729.414062 C 683.320312 729.699219 684.097656 729.945312 684.886719 730.15625 C 685.675781 730.367188 686.476562 730.535156 687.28125 730.667969 C 688.089844 730.796875 688.898438 730.886719 689.714844 730.941406 C 690.53125 730.992188 691.34375 731.003906 692.160156 730.972656 C 692.976562 730.945312 693.792969 730.875 694.601562 730.765625 C 695.410156 730.65625 696.210938 730.507812 697.007812 730.320312 C 697.800781 730.132812 698.585938 729.90625 699.359375 729.640625 C 700.132812 729.378906 700.890625 729.074219 701.632812 728.734375 C 702.375 728.394531 703.101562 728.023438 703.808594 727.609375 C 704.511719 727.199219 705.199219 726.757812 705.859375 726.277344 C 706.523438 725.800781 707.160156 725.292969 707.773438 724.75 C 708.386719 724.210938 708.96875 723.640625 709.527344 723.042969 C 710.082031 722.445312 710.609375 721.820312 711.105469 721.171875 C 711.597656 720.523438 712.0625 719.847656 712.492188 719.15625 C 712.917969 718.460938 713.3125 717.746094 713.671875 717.011719 C 714.03125 716.277344 714.351562 715.527344 714.636719 714.761719 C 714.921875 713.996094 715.171875 713.21875 715.378906 712.429688 C 715.585938 711.640625 715.757812 710.839844 715.886719 710.035156 C 716.019531 709.226562 716.109375 708.417969 716.160156 707.601562 C 716.210938 706.785156 716.21875 705.972656 716.191406 705.15625 C 716.160156 704.339844 716.089844 703.523438 715.980469 702.714844 C 715.871094 701.90625 715.722656 701.105469 715.535156 700.308594 C 715.347656 699.515625 715.121094 698.730469 714.855469 697.957031 C 714.589844 697.1875 714.285156 696.429688 713.945312 695.683594 C 713.605469 694.941406 713.230469 694.21875 712.820312 693.511719 C 712.410156 692.804688 711.964844 692.121094 711.484375 691.460938 C 711.007812 690.796875 710.496094 690.160156 709.957031 689.546875 C 709.414062 688.9375 708.84375 688.351562 708.246094 687.796875 C 707.648438 687.242188 707.023438 686.714844 706.375 686.21875 C 705.722656 685.726562 705.050781 685.265625 704.355469 684.835938 C 679.40625 669.441406 662.757812 642.1875 662.757812 610.617188 C 662.757812 579.050781 679.40625 551.796875 704.355469 536.402344 C 705.515625 535.707031 706.613281 534.925781 707.648438 534.050781 C 708.683594 533.175781 709.636719 532.226562 710.515625 531.195312 C 711.394531 530.167969 712.1875 529.074219 712.886719 527.917969 C 713.585938 526.757812 714.191406 525.550781 714.695312 524.296875 C 715.199219 523.042969 715.597656 521.753906 715.890625 520.433594 C 716.1875 519.109375 716.371094 517.773438 716.449219 516.425781 C 716.523438 515.074219 716.492188 513.726562 716.347656 512.378906 C 716.207031 511.035156 715.957031 509.707031 715.597656 508.402344 C 715.238281 507.097656 714.777344 505.832031 714.210938 504.601562 C 713.648438 503.371094 712.988281 502.195312 712.230469 501.074219 C 711.472656 499.953125 710.632812 498.898438 709.703125 497.914062 C 708.773438 496.929688 707.773438 496.027344 706.699219 495.203125 C 705.625 494.382812 704.488281 493.652344 703.292969 493.015625 C 702.101562 492.378906 700.863281 491.84375 699.582031 491.40625 C 698.300781 490.972656 696.992188 490.644531 695.65625 490.421875 C 694.324219 490.199219 692.980469 490.085938 691.625 490.082031 Z M 807.613281 490.082031 C 806.273438 490.125 804.949219 490.273438 803.632812 490.53125 C 802.320312 490.785156 801.035156 491.148438 799.78125 491.609375 C 798.523438 492.074219 797.316406 492.632812 796.148438 493.292969 C 794.984375 493.949219 793.878906 494.699219 792.832031 495.535156 C 791.789062 496.371094 790.816406 497.285156 789.921875 498.277344 C 789.023438 499.269531 788.210938 500.328125 787.484375 501.453125 C 786.753906 502.574219 786.121094 503.75 785.585938 504.976562 C 785.046875 506.199219 784.609375 507.460938 784.273438 508.757812 C 783.941406 510.050781 783.710938 511.367188 783.585938 512.699219 C 783.464844 514.03125 783.449219 515.367188 783.539062 516.703125 C 783.632812 518.035156 783.828125 519.355469 784.132812 520.660156 C 784.4375 521.960938 784.84375 523.234375 785.351562 524.472656 C 785.859375 525.710938 786.464844 526.898438 787.164062 528.039062 C 787.867188 529.179688 788.652344 530.257812 789.527344 531.269531 C 790.402344 532.285156 791.351562 533.222656 792.375 534.082031 C 793.398438 534.945312 794.484375 535.71875 795.636719 536.402344 C 820.585938 551.796875 837.234375 579.050781 837.234375 610.617188 C 837.234375 642.1875 820.585938 669.441406 795.636719 684.835938 C 794.941406 685.265625 794.269531 685.726562 793.621094 686.222656 C 792.96875 686.714844 792.347656 687.242188 791.75 687.796875 C 791.152344 688.355469 790.582031 688.9375 790.042969 689.550781 C 789.5 690.164062 788.992188 690.800781 788.515625 691.460938 C 788.035156 692.125 787.59375 692.808594 787.183594 693.511719 C 786.769531 694.21875 786.394531 694.941406 786.058594 695.6875 C 785.71875 696.429688 785.414062 697.1875 785.152344 697.957031 C 784.886719 698.730469 784.660156 699.515625 784.472656 700.308594 C 784.28125 701.101562 784.132812 701.90625 784.023438 702.714844 C 783.914062 703.523438 783.847656 704.335938 783.816406 705.152344 C 783.789062 705.96875 783.796875 706.78125 783.847656 707.597656 C 783.898438 708.414062 783.992188 709.222656 784.121094 710.03125 C 784.25 710.835938 784.421875 711.632812 784.628906 712.421875 C 784.839844 713.210938 785.085938 713.988281 785.371094 714.753906 C 785.65625 715.519531 785.976562 716.269531 786.335938 717 C 786.695312 717.734375 787.089844 718.449219 787.519531 719.144531 C 787.945312 719.839844 788.410156 720.511719 788.902344 721.160156 C 789.398438 721.808594 789.925781 722.433594 790.480469 723.03125 C 791.035156 723.628906 791.621094 724.199219 792.234375 724.738281 C 792.84375 725.277344 793.480469 725.789062 794.144531 726.265625 C 794.804688 726.742188 795.488281 727.1875 796.195312 727.597656 C 796.902344 728.007812 797.625 728.382812 798.367188 728.722656 C 799.109375 729.0625 799.867188 729.363281 800.640625 729.628906 C 801.414062 729.894531 802.195312 730.121094 802.992188 730.308594 C 803.785156 730.496094 804.585938 730.644531 805.398438 730.753906 C 806.207031 730.863281 807.019531 730.933594 807.835938 730.960938 C 808.648438 730.992188 809.464844 730.980469 810.28125 730.929688 C 811.09375 730.878906 811.90625 730.789062 812.710938 730.660156 C 813.519531 730.527344 814.316406 730.359375 815.105469 730.148438 C 815.894531 729.941406 816.671875 729.695312 817.4375 729.410156 C 818.203125 729.125 818.949219 728.800781 819.683594 728.445312 C 820.417969 728.085938 821.132812 727.691406 821.828125 727.261719 C 860.910156 703.148438 887.085938 659.808594 887.085938 610.617188 C 887.085938 561.429688 860.910156 518.089844 821.828125 493.976562 C 819.707031 492.625 817.4375 491.617188 815.011719 490.953125 C 812.589844 490.289062 810.121094 490 807.613281 490.082031 Z M 749.996094 573.230469 C 748.769531 573.230469 747.550781 573.292969 746.332031 573.410156 C 745.113281 573.53125 743.902344 573.710938 742.703125 573.949219 C 741.5 574.1875 740.3125 574.484375 739.144531 574.839844 C 737.972656 575.195312 736.820312 575.609375 735.6875 576.078125 C 734.558594 576.546875 733.449219 577.070312 732.371094 577.644531 C 731.292969 578.222656 730.242188 578.851562 729.222656 579.53125 C 728.207031 580.210938 727.222656 580.941406 726.277344 581.71875 C 725.332031 582.496094 724.425781 583.316406 723.558594 584.183594 C 722.691406 585.046875 721.871094 585.953125 721.09375 586.898438 C 720.316406 587.847656 719.589844 588.828125 718.910156 589.847656 C 718.226562 590.867188 717.601562 591.914062 717.023438 592.996094 C 716.445312 594.074219 715.921875 595.179688 715.453125 596.3125 C 714.984375 597.441406 714.574219 598.59375 714.21875 599.765625 C 713.863281 600.9375 713.566406 602.125 713.324219 603.324219 C 713.085938 604.527344 712.90625 605.734375 712.789062 606.953125 C 712.667969 608.171875 712.609375 609.394531 712.609375 610.617188 C 712.609375 611.84375 712.667969 613.066406 712.789062 614.285156 C 712.90625 615.503906 713.085938 616.710938 713.324219 617.914062 C 713.566406 619.113281 713.863281 620.300781 714.21875 621.472656 C 714.574219 622.644531 714.984375 623.796875 715.453125 624.925781 C 715.921875 626.058594 716.445312 627.164062 717.023438 628.242188 C 717.601562 629.324219 718.226562 630.371094 718.910156 631.390625 C 719.589844 632.410156 720.316406 633.390625 721.09375 634.335938 C 721.871094 635.285156 722.691406 636.191406 723.558594 637.054688 C 724.425781 637.921875 725.332031 638.742188 726.277344 639.519531 C 727.222656 640.296875 728.207031 641.027344 729.222656 641.707031 C 730.242188 642.386719 731.292969 643.015625 732.371094 643.59375 C 733.449219 644.167969 734.558594 644.691406 735.6875 645.160156 C 736.820312 645.628906 737.972656 646.042969 739.144531 646.398438 C 740.3125 646.753906 741.5 647.050781 742.703125 647.289062 C 743.902344 647.527344 745.113281 647.707031 746.332031 647.828125 C 747.550781 647.945312 748.769531 648.007812 749.996094 648.007812 C 751.21875 648.007812 752.441406 647.945312 753.660156 647.828125 C 754.878906 647.707031 756.089844 647.527344 757.289062 647.289062 C 758.492188 647.050781 759.675781 646.753906 760.847656 646.398438 C 762.019531 646.042969 763.171875 645.628906 764.304688 645.160156 C 765.433594 644.691406 766.539062 644.167969 767.621094 643.59375 C 768.699219 643.015625 769.75 642.386719 770.765625 641.707031 C 771.785156 641.027344 772.769531 640.296875 773.714844 639.519531 C 774.660156 638.742188 775.566406 637.921875 776.433594 637.054688 C 777.300781 636.191406 778.121094 635.285156 778.898438 634.335938 C 779.675781 633.390625 780.402344 632.410156 781.082031 631.390625 C 781.761719 630.371094 782.390625 629.324219 782.96875 628.242188 C 783.546875 627.164062 784.070312 626.058594 784.539062 624.925781 C 785.007812 623.796875 785.417969 622.644531 785.773438 621.472656 C 786.128906 620.300781 786.425781 619.113281 786.664062 617.914062 C 786.90625 616.710938 787.082031 615.503906 787.203125 614.285156 C 787.324219 613.066406 787.382812 611.84375 787.382812 610.617188 C 787.382812 609.394531 787.324219 608.171875 787.203125 606.953125 C 787.082031 605.734375 786.90625 604.527344 786.664062 603.324219 C 786.425781 602.125 786.128906 600.9375 785.773438 599.765625 C 785.417969 598.59375 785.007812 597.441406 784.539062 596.3125 C 784.070312 595.179688 783.546875 594.074219 782.96875 592.996094 C 782.390625 591.914062 781.761719 590.867188 781.082031 589.847656 C 780.402344 588.828125 779.675781 587.847656 778.898438 586.898438 C 778.121094 585.953125 777.300781 585.046875 776.433594 584.183594 C 775.566406 583.316406 774.660156 582.496094 773.714844 581.71875 C 772.769531 580.941406 771.785156 580.210938 770.765625 579.53125 C 769.75 578.851562 768.699219 578.222656 767.621094 577.644531 C 766.539062 577.070312 765.433594 576.546875 764.304688 576.078125 C 763.171875 575.609375 762.019531 575.195312 760.847656 574.839844 C 759.675781 574.484375 758.492188 574.1875 757.289062 573.949219 C 756.089844 573.710938 754.878906 573.53125 753.660156 573.410156 C 752.441406 573.289062 751.21875 573.230469 749.996094 573.230469 Z M 749.996094 573.230469 " fill-opacity="1" fill-rule="nonzero"/></g></svg>